<?xml version="1.0" encoding="UTF-8" standalone="no"?>
<!DOCTYPE svg PUBLIC "-//W3C//DTD SVG 1.1//EN" "http://www.w3.org/Graphics/SVG/1.1/DTD/svg11.dtd">
<svg width="100%" height="100%" viewBox="0 0 1017 450" version="1.1" xmlns="http://www.w3.org/2000/svg" xmlns:xlink="http://www.w3.org/1999/xlink" xml:space="preserve" xmlns:serif="http://www.serif.com/" style="fill-rule:evenodd;clip-rule:evenodd;stroke-linejoin:round;stroke-miterlimit:2;">
    <g transform="matrix(0.555477,0,0,0.555477,-459.6,-253.137)">
        <path d="M1880.27,1025.26L1880.34,1025.26C1898.63,1025.25 1915.93,1023.04 1932.25,1018.62C1948.37,1014.25 1962.68,1006.87 1975.19,996.475C1987.67,986.104 1997.41,975.524 2004.48,958.24C2011.63,940.737 2015.16,920.128 2015.16,894.558C2015.16,894.558 2015.16,761.715 2015.16,761.715C2015.16,739.447 2010.75,722.77 2001.54,711.784C1992.57,701.075 1980.09,695.804 1964.17,695.804C1948.19,695.804 1935.32,701.35 1925.59,712.533C1915.75,723.843 1911.87,739.377 1913.63,759.056C1913.63,759.061 1913.63,759.065 1913.63,759.07C1914.54,768.797 1915.9,777.234 1917.73,784.378C1919.56,791.571 1921.78,798.764 1924.38,805.957C1927.05,813.33 1929.72,821.722 1932.38,831.134C1935.06,840.56 1937.5,852.183 1939.69,866.005C1939.7,866.015 1939.7,866.025 1939.7,866.035C1943.29,887.257 1940.91,904.214 1932.91,916.95C1924.72,929.981 1911.35,937.305 1892.64,938.641C1892.62,938.643 1892.61,938.644 1892.59,938.645C1875.01,939.64 1860.69,934.593 1849.59,923.649C1838.62,912.846 1832.91,895.894 1832.91,872.651L1832.91,736.545C1832.91,722.934 1828.52,712.735 1819.44,706.071C1810.11,699.219 1799.47,695.804 1787.51,695.804C1775.27,695.804 1764.55,699.206 1755.37,706.055C1746.43,712.722 1742.11,722.928 1742.11,736.545C1742.11,736.545 1742.11,893.624 1742.11,893.624C1742.11,919.168 1745.79,940.615 1753.24,957.948C1760.61,975.078 1770.73,985.503 1783.65,995.721C1796.64,1005.99 1811.37,1013.39 1827.84,1017.92C1844.48,1022.5 1861.95,1024.94 1880.27,1025.26ZM901.893,1025.26C916.517,1025.26 927.617,1020.96 935.072,1012.07C942.669,1003.01 946.363,990.853 946.363,975.658L946.363,852.14C946.363,848.488 947.104,845.113 948.565,842.009C948.565,842.009 948.565,842.009 948.565,842.009C950.394,838.122 953.729,836.014 958.76,836.014C962.764,836.014 966.043,837.812 968.49,841.593C970.394,844.536 971.708,847.73 972.429,851.168C972.446,851.251 972.467,851.333 972.49,851.414L1005.51,961.614C1005.51,961.621 1005.51,961.628 1005.51,961.635C1011.52,982.666 1020.16,998.629 1031.58,1009.45C1042.79,1020.07 1058.48,1025.26 1078.55,1025.26C1098.24,1025.26 1113.56,1019.5 1124.43,1007.75C1135.43,995.847 1140.73,977.342 1140.73,952.353C1140.73,952.353 1140.73,745.401 1140.73,745.401C1140.73,729.908 1137.13,717.667 1129.67,708.751C1122.36,700.004 1111.18,695.804 1096.26,695.804C1081.89,695.804 1070.78,700.063 1063.02,708.827C1055.15,717.724 1051.33,729.941 1051.33,745.401L1051.33,923.455C1051.33,925.411 1049.74,926.996 1047.79,926.996L1040.33,926.996C1038.76,926.996 1037.37,925.959 1036.93,924.45C1036.93,924.45 986.592,754.32 986.592,754.32C986.59,754.314 986.588,754.309 986.587,754.304C980.325,732.535 971.672,717.244 960.341,708.596C949.122,700.034 935.378,695.804 919.14,695.804C908.191,695.804 898.054,698.014 888.733,702.452C879.561,706.82 872.153,713.754 866.475,723.218C860.698,732.845 857.89,745.379 857.89,760.783C857.89,760.783 857.89,975.658 857.89,975.658C857.89,990.853 861.584,1003.01 869.181,1012.07C876.629,1020.95 887.57,1025.26 901.893,1025.26ZM2362.7,1024.52L2362.3,1024.5C2378.55,1026.55 2392.44,1024.7 2403.97,1018.79C2415.05,1013.1 2421.71,1003.85 2424,991.04C2424,991.027 2424,991.014 2424.01,991.001C2425.47,982.215 2425.66,974.892 2424.48,969.03C2423.3,963.091 2422.11,960.984 2420.93,957.394C2420.91,957.339 2420.89,957.283 2420.87,957.228C2419.39,953.424 2419.15,949.71 2420.1,946.093C2420.1,946.093 2420.1,946.093 2420.1,946.093C2421.28,941.641 2424.66,939.026 2430.75,939.026C2430.75,939.026 2517.45,939.026 2517.45,939.026C2523.54,939.026 2526.93,941.641 2528.1,946.093C2529.04,949.668 2528.96,953.338 2527.83,957.101C2527.82,957.135 2527.81,957.169 2527.8,957.203C2526.59,960.846 2525.3,963.041 2523.93,969.112C2522.62,974.935 2522.9,982.212 2524.65,990.947C2524.65,990.972 2524.66,990.996 2524.66,991.021C2526.94,1003.82 2533.83,1013.08 2545.35,1018.76C2557.35,1024.69 2571.5,1026.56 2587.8,1024.49C2587.82,1024.49 2587.84,1024.49 2587.87,1024.48C2607.36,1021.6 2619.78,1012.98 2624.8,998.193C2630.03,982.797 2628.29,965.968 2619.92,942.35C2619.92,942.345 2619.92,942.34 2619.91,942.335C2619.91,942.335 2558.85,770.807 2558.85,770.807C2558.85,770.804 2558.85,770.801 2558.85,770.797C2550.65,747.098 2540.43,728.54 2528.13,715.171C2516.14,702.147 2498.25,695.804 2474.57,695.804C2458.8,695.804 2445.62,698.72 2435.05,704.671C2424.52,710.606 2415.78,719.074 2408.8,730.053C2401.63,741.344 2395.31,754.929 2389.82,770.797C2389.81,770.803 2389.81,770.809 2389.81,770.815L2328.28,942.35C2319.93,965.909 2318.55,982.692 2324.51,998.05C2330.28,1012.89 2342.93,1021.59 2362.22,1024.49L2362.7,1024.52ZM1544.23,1025.26L1617.88,1025.72C1653.64,1026.02 1679.41,1019.94 1695.04,1004.17C1710.58,988.473 1718.25,967.138 1718.25,940.236C1718.25,915.559 1712.25,896.847 1699.91,884.211C1687.63,871.636 1671.71,864.954 1652.18,864.066C1650.29,863.981 1648.8,862.423 1648.8,860.53C1648.8,860.53 1648.8,853.538 1648.8,853.538C1648.8,851.783 1650.09,850.292 1651.82,850.036C1669.69,847.399 1683.14,839.709 1692.08,826.817C1701.18,813.687 1705.66,797.256 1705.66,777.561C1705.66,753.08 1698.57,734.059 1684.24,718.683C1669.87,703.267 1646.44,695.804 1614.12,695.804C1614.12,695.804 1485.94,695.804 1485.94,695.804C1472.75,695.804 1462.19,700.109 1454.31,708.851C1446.32,717.704 1442.57,729.419 1442.86,743.932C1443.15,758.493 1447.06,769.168 1454.78,777.759C1462.36,786.202 1472.77,790.335 1485.94,790.335L1493.86,790.335C1495.47,790.335 1496.87,791.419 1497.28,792.974C1497.28,792.974 1499.61,801.831 1499.61,801.831C1500.09,803.654 1499.06,805.533 1497.26,806.105C1490.88,808.137 1483.86,813.77 1476.02,822.769C1467.87,832.129 1460.88,844.675 1454.99,860.375C1449.06,876.182 1446.13,894.881 1446.13,916.464C1446.13,938.67 1448.6,956.927 1453.62,971.225C1458.52,985.187 1465.38,994.733 1474.3,1002.61C1483.22,1010.49 1493.55,1016.06 1505.3,1019.33C1517.29,1022.67 1530.27,1024.64 1544.23,1025.26ZM2048.35,737.477L2048.35,940.702C2048.35,964.186 2051.62,982.122 2058.4,994.466C2064.96,1006.42 2074.65,1013.71 2087.47,1018.23C2100.83,1022.94 2117.53,1025.26 2137.57,1025.26C2137.57,1025.26 2233.59,1025.26 2233.59,1025.26C2256.71,1025.26 2273.59,1020.74 2284.12,1011.25C2294.45,1001.93 2299.5,989.574 2299.5,972.398C2299.5,956.334 2294.75,943.309 2285.11,933.379C2275.44,923.415 2261.02,918.606 2241.97,918.606C2227.9,918.606 2215.02,921.211 2203.34,926.452C2191.31,931.848 2177.6,939.018 2162.18,947.959C2162.17,947.966 2162.16,947.972 2162.15,947.979C2153.26,953.001 2146.76,953.19 2142.9,950.293C2142.9,950.293 2142.9,950.293 2142.9,950.293C2139.05,947.405 2136.82,942.422 2136.82,935.108C2136.82,935.108 2136.82,737.477 2136.82,737.477C2136.82,724.325 2132.93,714.059 2124.93,706.768C2116.83,699.392 2105.95,695.804 2092.35,695.804C2079.34,695.804 2068.69,699.416 2060.45,706.788C2052.31,714.075 2048.35,724.334 2048.35,737.477ZM1275.25,1025.26C1275.25,1025.26 1358.69,1025.26 1358.69,1025.26C1382.12,1025.26 1399.16,1020.74 1409.69,1011.25C1420.02,1001.93 1425.06,988.64 1425.06,971.463C1425.06,955.407 1420.25,943.324 1410.47,933.398C1400.64,923.426 1386.14,918.606 1367.08,918.606C1353.18,918.606 1338.98,921.261 1324.47,926.548C1309.74,931.92 1294.7,939.058 1279.36,947.959C1279.35,947.966 1279.34,947.972 1279.32,947.979C1270.49,952.972 1263.94,953.222 1259.91,950.341C1255.85,947.444 1253.53,942.447 1253.53,935.108L1253.53,874.047C1253.53,872.975 1254.02,871.96 1254.86,871.288C1255.69,870.616 1256.79,870.359 1257.83,870.59C1273.42,874.02 1289.8,878.073 1306.95,882.751C1323.68,887.315 1339.51,889.456 1354.42,889.152C1354.42,889.152 1354.42,889.152 1354.42,889.152C1368,888.863 1378.24,885.926 1385.03,880.003C1391.58,874.286 1394.77,866.373 1394.77,856.335C1394.77,846.593 1391.57,838.839 1385.03,833.133C1378.25,827.224 1368.04,824.45 1354.49,824.45C1339.56,824.45 1323.79,826.745 1307.19,831.315C1290.19,835.993 1273.89,840.048 1258.3,843.478C1257.25,843.709 1256.16,843.452 1255.32,842.78C1254.49,842.108 1254,841.093 1254,840.021C1254,840.021 1254,805.062 1254,805.062C1254,797.332 1255.84,791.586 1259.17,787.721C1262.65,783.67 1267.82,781.479 1274.79,781.479C1274.79,781.479 1371.27,781.479 1371.27,781.479C1387.18,781.479 1398.96,777.786 1406.48,769.978C1413.96,762.21 1417.61,751.82 1417.61,738.874C1417.61,724.514 1413.94,713.681 1406.26,706.502C1398.5,699.247 1386.8,695.802 1371.27,695.802C1371.27,695.802 1203.94,695.802 1203.94,695.802C1190.74,695.802 1180.17,700.034 1172.29,708.638C1164.31,717.336 1160.57,728.967 1160.86,743.464C1160.86,743.465 1160.86,743.465 1160.86,743.466C1161.16,758.328 1165.05,770.094 1172.78,778.691C1180.36,787.134 1190.77,791.267 1203.94,791.267L1211.86,791.267C1213.47,791.267 1214.88,792.351 1215.28,793.907C1215.28,793.907 1217.61,802.763 1217.61,802.763C1218.09,804.586 1217.06,806.466 1215.26,807.037C1208.88,809.069 1201.93,814.548 1194.24,823.254C1186.25,832.298 1179.42,844.526 1173.69,859.901C1167.92,875.404 1165.06,893.95 1165.06,915.531C1165.06,939.531 1167.97,957.972 1173.89,972.706C1179.68,987.109 1187.51,998.13 1197.46,1005.7C1207.45,1013.31 1219.09,1018.45 1232.37,1021.13C1245.98,1023.88 1260.27,1025.26 1275.25,1025.26ZM1528.08,914.599L1528.08,889.895C1528.08,881.607 1530.12,876.282 1533.33,873.645C1536.38,871.126 1541.98,869.575 1550.26,869.575C1550.26,869.575 1598.27,869.575 1598.27,869.575C1611.23,869.575 1621.17,871.943 1628.15,876.43C1635.56,881.19 1639.57,889.786 1639.57,902.48C1639.57,915.14 1635.59,923.808 1628.2,928.732C1621.21,933.392 1611.25,935.852 1598.27,935.852C1598.27,935.852 1550.26,935.852 1550.26,935.852C1541.89,935.852 1536.24,934.072 1533.15,931.161C1533.15,931.161 1533.15,931.161 1533.15,931.161C1530,928.198 1528.08,922.747 1528.08,914.599ZM2460.25,802.448L2460.93,800.284C2462.03,796.644 2463.44,793.861 2465.07,791.867C2467.05,789.442 2470.16,788.005 2474.57,788.005C2478.97,788.005 2482.08,789.442 2484.07,791.867C2485.72,793.884 2486.99,796.674 2487.75,800.283C2487.78,800.39 2487.8,800.495 2487.84,800.599L2511.97,876.234C2512.31,877.311 2512.12,878.486 2511.45,879.399C2510.78,880.311 2509.72,880.85 2508.59,880.85L2440.54,880.85C2439.41,880.85 2438.35,880.314 2437.69,879.407C2437.02,878.499 2436.83,877.328 2437.16,876.253C2437.16,876.253 2456.41,814.739 2460.25,802.448ZM1528.08,820.91L1528.08,800.867C1528.08,792.131 1530.18,786.797 1533.22,784.518C1533.22,784.518 1533.22,784.518 1533.22,784.518C1536.09,782.362 1541.42,781.013 1549.33,781.013C1549.33,781.013 1592.21,781.013 1592.21,781.013C1604.77,781.013 1614.34,782.942 1620.95,786.578C1628.12,790.52 1632.11,798.58 1632.11,811.122C1632.11,823.295 1628.17,831.281 1621.01,835.399C1614.38,839.209 1604.8,841.23 1592.21,841.23C1592.21,841.23 1549.33,841.23 1549.33,841.23C1541.31,841.23 1535.93,839.641 1533.01,837.092C1533.01,837.092 1533.01,837.092 1533.01,837.092C1530.01,834.467 1528.08,829.158 1528.08,820.91Z" style="fill:rgb(239,215,255);"/>
    </g>
</svg>
